<mxfile host="app.diagrams.net" modified="2023-04-04T09:50:43.182Z" agent="Mozilla/5.0 (Windows NT 10.0; Win64; x64) AppleWebKit/537.36 (KHTML, like Gecko) Chrome/111.0.0.0 Safari/537.36" etag="tUDGb1ItBZ078GTZ0Cvz" version="21.1.1" type="github">
  <diagram name="Page-1" id="WqpgShL4esCXLb5qrGiT">
    <mxGraphModel dx="1235" dy="641" grid="1" gridSize="10" guides="1" tooltips="1" connect="1" arrows="1" fold="1" page="1" pageScale="1" pageWidth="850" pageHeight="1100" math="0" shadow="0">
      <root>
        <mxCell id="0" />
        <mxCell id="1" parent="0" />
        <mxCell id="Ems6CJQCoKu4AGtUUZMs-52" value="&lt;font style=&quot;font-size: 14px;&quot;&gt;39.0.0.0/16&lt;/font&gt;" style="shape=mxgraph.ibm.box;prType=subnet;fontStyle=0;verticalAlign=top;align=left;spacingLeft=32;spacingTop=4;fillColor=#FFFFFF;rounded=0;whiteSpace=wrap;html=1;strokeColor=#00882B;strokeWidth=1;dashed=0;container=1;spacing=-4;collapsible=0;expand=0;recursiveResize=0;" vertex="1" parent="1">
          <mxGeometry x="160" y="190" width="730" height="1000" as="geometry" />
        </mxCell>
        <mxCell id="Ems6CJQCoKu4AGtUUZMs-1" value="" style="outlineConnect=0;dashed=0;verticalLabelPosition=bottom;verticalAlign=top;align=center;html=1;shape=mxgraph.aws3.classic_load_balancer;fillColor=#F58536;gradientColor=none;" vertex="1" parent="1">
          <mxGeometry x="480" y="660" width="69" height="72" as="geometry" />
        </mxCell>
        <mxCell id="Ems6CJQCoKu4AGtUUZMs-3" value="Public Subnet AZ2" style="shape=mxgraph.ibm.box;prType=subnet;fontStyle=0;verticalAlign=top;align=left;spacingLeft=32;spacingTop=4;fillColor=#E6F0E2;rounded=0;whiteSpace=wrap;html=1;strokeColor=#00882B;strokeWidth=1;dashed=0;container=1;spacing=-4;collapsible=0;expand=0;recursiveResize=0;" vertex="1" parent="1">
          <mxGeometry x="409" y="240" width="140" height="150" as="geometry" />
        </mxCell>
        <mxCell id="Ems6CJQCoKu4AGtUUZMs-5" value="Private Subnet AZ1" style="points=[[0,0],[0.25,0],[0.5,0],[0.75,0],[1,0],[1,0.25],[1,0.5],[1,0.75],[1,1],[0.75,1],[0.5,1],[0.25,1],[0,1],[0,0.75],[0,0.5],[0,0.25]];outlineConnect=0;gradientColor=none;html=1;whiteSpace=wrap;fontSize=12;fontStyle=0;container=1;pointerEvents=0;collapsible=0;recursiveResize=0;shape=mxgraph.aws4.group;grIcon=mxgraph.aws4.group_security_group;grStroke=0;strokeColor=#147EBA;fillColor=#E6F2F8;verticalAlign=top;align=left;spacingLeft=30;fontColor=#147EBA;dashed=0;" vertex="1" parent="1">
          <mxGeometry x="206.5" y="840" width="180" height="200" as="geometry" />
        </mxCell>
        <mxCell id="Ems6CJQCoKu4AGtUUZMs-9" value="" style="sketch=0;points=[[0,0,0],[0.25,0,0],[0.5,0,0],[0.75,0,0],[1,0,0],[0,1,0],[0.25,1,0],[0.5,1,0],[0.75,1,0],[1,1,0],[0,0.25,0],[0,0.5,0],[0,0.75,0],[1,0.25,0],[1,0.5,0],[1,0.75,0]];outlineConnect=0;fontColor=#232F3E;gradientColor=#F78E04;gradientDirection=north;fillColor=#D05C17;strokeColor=#ffffff;dashed=0;verticalLabelPosition=bottom;verticalAlign=top;align=center;html=1;fontSize=12;fontStyle=0;aspect=fixed;shape=mxgraph.aws4.resourceIcon;resIcon=mxgraph.aws4.fargate;" vertex="1" parent="Ems6CJQCoKu4AGtUUZMs-5">
          <mxGeometry x="51" y="72" width="78" height="78" as="geometry" />
        </mxCell>
        <mxCell id="Ems6CJQCoKu4AGtUUZMs-19" value="Fargate" style="text;html=1;strokeColor=none;fillColor=none;align=center;verticalAlign=middle;whiteSpace=wrap;rounded=0;" vertex="1" parent="Ems6CJQCoKu4AGtUUZMs-5">
          <mxGeometry x="60" y="150" width="60" height="30" as="geometry" />
        </mxCell>
        <mxCell id="Ems6CJQCoKu4AGtUUZMs-20" value="Target Group" style="text;html=1;strokeColor=none;fillColor=none;align=center;verticalAlign=middle;whiteSpace=wrap;rounded=0;" vertex="1" parent="Ems6CJQCoKu4AGtUUZMs-5">
          <mxGeometry x="30" y="42" width="120" height="30" as="geometry" />
        </mxCell>
        <mxCell id="Ems6CJQCoKu4AGtUUZMs-18" value="" style="rounded=0;whiteSpace=wrap;html=1;dashed=1;fillColor=none;strokeColor=#D0D0D0;strokeWidth=2;" vertex="1" parent="Ems6CJQCoKu4AGtUUZMs-5">
          <mxGeometry x="20" y="40" width="140" height="140" as="geometry" />
        </mxCell>
        <mxCell id="Ems6CJQCoKu4AGtUUZMs-6" value="" style="sketch=0;points=[[0,0,0],[0.25,0,0],[0.5,0,0],[0.75,0,0],[1,0,0],[0,1,0],[0.25,1,0],[0.5,1,0],[0.75,1,0],[1,1,0],[0,0.25,0],[0,0.5,0],[0,0.75,0],[1,0.25,0],[1,0.5,0],[1,0.75,0]];outlineConnect=0;fontColor=#232F3E;gradientColor=#945DF2;gradientDirection=north;fillColor=#5A30B5;strokeColor=#ffffff;dashed=0;verticalLabelPosition=bottom;verticalAlign=top;align=center;html=1;fontSize=12;fontStyle=0;aspect=fixed;shape=mxgraph.aws4.resourceIcon;resIcon=mxgraph.aws4.route_53;" vertex="1" parent="1">
          <mxGeometry x="700" y="655" width="78" height="78" as="geometry" />
        </mxCell>
        <mxCell id="Ems6CJQCoKu4AGtUUZMs-7" value="" style="outlineConnect=0;dashed=0;verticalLabelPosition=bottom;verticalAlign=top;align=center;html=1;shape=mxgraph.aws3.router;fillColor=#F58536;gradientColor=none;" vertex="1" parent="1">
          <mxGeometry x="262" y="661" width="69" height="72" as="geometry" />
        </mxCell>
        <mxCell id="Ems6CJQCoKu4AGtUUZMs-8" value="" style="outlineConnect=0;dashed=0;verticalLabelPosition=bottom;verticalAlign=top;align=center;html=1;shape=mxgraph.aws3.internet_gateway;fillColor=#F58534;gradientColor=none;" vertex="1" parent="1">
          <mxGeometry x="130" y="514" width="69" height="72" as="geometry" />
        </mxCell>
        <mxCell id="Ems6CJQCoKu4AGtUUZMs-10" value="" style="outlineConnect=0;dashed=0;verticalLabelPosition=bottom;verticalAlign=top;align=center;html=1;shape=mxgraph.aws3.user;fillColor=#D2D3D3;gradientColor=none;" vertex="1" parent="1">
          <mxGeometry x="1000" y="652" width="60" height="80" as="geometry" />
        </mxCell>
        <mxCell id="Ems6CJQCoKu4AGtUUZMs-11" value="" style="outlineConnect=0;dashed=0;verticalLabelPosition=bottom;verticalAlign=top;align=center;html=1;shape=mxgraph.aws3.router;fillColor=#F58536;gradientColor=none;" vertex="1" parent="1">
          <mxGeometry x="444.5" y="430" width="69" height="72" as="geometry" />
        </mxCell>
        <mxCell id="Ems6CJQCoKu4AGtUUZMs-12" value="Public Subnet AZ3" style="shape=mxgraph.ibm.box;prType=subnet;fontStyle=0;verticalAlign=top;align=left;spacingLeft=32;spacingTop=4;fillColor=#E6F0E2;rounded=0;whiteSpace=wrap;html=1;strokeColor=#00882B;strokeWidth=1;dashed=0;container=1;spacing=-4;collapsible=0;expand=0;recursiveResize=0;" vertex="1" parent="1">
          <mxGeometry x="590" y="240" width="140" height="150" as="geometry" />
        </mxCell>
        <mxCell id="Ems6CJQCoKu4AGtUUZMs-13" value="Public Subnet AZ1" style="shape=mxgraph.ibm.box;prType=subnet;fontStyle=0;verticalAlign=top;align=left;spacingLeft=32;spacingTop=4;fillColor=#E6F0E2;rounded=0;whiteSpace=wrap;html=1;strokeColor=#00882B;strokeWidth=1;dashed=0;container=1;spacing=-4;collapsible=0;expand=0;recursiveResize=0;" vertex="1" parent="1">
          <mxGeometry x="224.5" y="240" width="140" height="150" as="geometry" />
        </mxCell>
        <mxCell id="Ems6CJQCoKu4AGtUUZMs-2" value="" style="outlineConnect=0;dashed=0;verticalLabelPosition=bottom;verticalAlign=top;align=center;html=1;shape=mxgraph.aws3.vpc_nat_gateway;fillColor=#F58534;gradientColor=none;" vertex="1" parent="Ems6CJQCoKu4AGtUUZMs-13">
          <mxGeometry x="40" y="50" width="64.5" height="70" as="geometry" />
        </mxCell>
        <mxCell id="Ems6CJQCoKu4AGtUUZMs-43" value="NAT" style="text;html=1;strokeColor=none;fillColor=none;align=center;verticalAlign=middle;whiteSpace=wrap;rounded=0;" vertex="1" parent="Ems6CJQCoKu4AGtUUZMs-13">
          <mxGeometry x="72" y="110" width="60" height="30" as="geometry" />
        </mxCell>
        <mxCell id="Ems6CJQCoKu4AGtUUZMs-21" value="Private Subnet AZ2" style="points=[[0,0],[0.25,0],[0.5,0],[0.75,0],[1,0],[1,0.25],[1,0.5],[1,0.75],[1,1],[0.75,1],[0.5,1],[0.25,1],[0,1],[0,0.75],[0,0.5],[0,0.25]];outlineConnect=0;gradientColor=none;html=1;whiteSpace=wrap;fontSize=12;fontStyle=0;container=1;pointerEvents=0;collapsible=0;recursiveResize=0;shape=mxgraph.aws4.group;grIcon=mxgraph.aws4.group_security_group;grStroke=0;strokeColor=#147EBA;fillColor=#E6F2F8;verticalAlign=top;align=left;spacingLeft=30;fontColor=#147EBA;dashed=0;" vertex="1" parent="1">
          <mxGeometry x="430" y="840" width="180" height="200" as="geometry" />
        </mxCell>
        <mxCell id="Ems6CJQCoKu4AGtUUZMs-22" value="" style="sketch=0;points=[[0,0,0],[0.25,0,0],[0.5,0,0],[0.75,0,0],[1,0,0],[0,1,0],[0.25,1,0],[0.5,1,0],[0.75,1,0],[1,1,0],[0,0.25,0],[0,0.5,0],[0,0.75,0],[1,0.25,0],[1,0.5,0],[1,0.75,0]];outlineConnect=0;fontColor=#232F3E;gradientColor=#F78E04;gradientDirection=north;fillColor=#D05C17;strokeColor=#ffffff;dashed=0;verticalLabelPosition=bottom;verticalAlign=top;align=center;html=1;fontSize=12;fontStyle=0;aspect=fixed;shape=mxgraph.aws4.resourceIcon;resIcon=mxgraph.aws4.fargate;" vertex="1" parent="Ems6CJQCoKu4AGtUUZMs-21">
          <mxGeometry x="51" y="72" width="78" height="78" as="geometry" />
        </mxCell>
        <mxCell id="Ems6CJQCoKu4AGtUUZMs-23" value="Fargate" style="text;html=1;strokeColor=none;fillColor=none;align=center;verticalAlign=middle;whiteSpace=wrap;rounded=0;" vertex="1" parent="Ems6CJQCoKu4AGtUUZMs-21">
          <mxGeometry x="60" y="150" width="60" height="30" as="geometry" />
        </mxCell>
        <mxCell id="Ems6CJQCoKu4AGtUUZMs-24" value="Target Group" style="text;html=1;strokeColor=none;fillColor=none;align=center;verticalAlign=middle;whiteSpace=wrap;rounded=0;" vertex="1" parent="Ems6CJQCoKu4AGtUUZMs-21">
          <mxGeometry x="30" y="42" width="120" height="30" as="geometry" />
        </mxCell>
        <mxCell id="Ems6CJQCoKu4AGtUUZMs-25" value="" style="rounded=0;whiteSpace=wrap;html=1;dashed=1;fillColor=none;strokeColor=#D0D0D0;strokeWidth=2;" vertex="1" parent="Ems6CJQCoKu4AGtUUZMs-21">
          <mxGeometry x="20" y="40" width="140" height="140" as="geometry" />
        </mxCell>
        <mxCell id="Ems6CJQCoKu4AGtUUZMs-26" value="Private Subnet AZ3" style="points=[[0,0],[0.25,0],[0.5,0],[0.75,0],[1,0],[1,0.25],[1,0.5],[1,0.75],[1,1],[0.75,1],[0.5,1],[0.25,1],[0,1],[0,0.75],[0,0.5],[0,0.25]];outlineConnect=0;gradientColor=none;html=1;whiteSpace=wrap;fontSize=12;fontStyle=0;container=1;pointerEvents=0;collapsible=0;recursiveResize=0;shape=mxgraph.aws4.group;grIcon=mxgraph.aws4.group_security_group;grStroke=0;strokeColor=#147EBA;fillColor=#E6F2F8;verticalAlign=top;align=left;spacingLeft=30;fontColor=#147EBA;dashed=0;" vertex="1" parent="1">
          <mxGeometry x="660" y="840" width="180" height="200" as="geometry" />
        </mxCell>
        <mxCell id="Ems6CJQCoKu4AGtUUZMs-27" value="" style="sketch=0;points=[[0,0,0],[0.25,0,0],[0.5,0,0],[0.75,0,0],[1,0,0],[0,1,0],[0.25,1,0],[0.5,1,0],[0.75,1,0],[1,1,0],[0,0.25,0],[0,0.5,0],[0,0.75,0],[1,0.25,0],[1,0.5,0],[1,0.75,0]];outlineConnect=0;fontColor=#232F3E;gradientColor=#F78E04;gradientDirection=north;fillColor=#D05C17;strokeColor=#ffffff;dashed=0;verticalLabelPosition=bottom;verticalAlign=top;align=center;html=1;fontSize=12;fontStyle=0;aspect=fixed;shape=mxgraph.aws4.resourceIcon;resIcon=mxgraph.aws4.fargate;" vertex="1" parent="Ems6CJQCoKu4AGtUUZMs-26">
          <mxGeometry x="51" y="72" width="78" height="78" as="geometry" />
        </mxCell>
        <mxCell id="Ems6CJQCoKu4AGtUUZMs-28" value="Fargate" style="text;html=1;strokeColor=none;fillColor=none;align=center;verticalAlign=middle;whiteSpace=wrap;rounded=0;" vertex="1" parent="Ems6CJQCoKu4AGtUUZMs-26">
          <mxGeometry x="60" y="150" width="60" height="30" as="geometry" />
        </mxCell>
        <mxCell id="Ems6CJQCoKu4AGtUUZMs-29" value="Target Group" style="text;html=1;strokeColor=none;fillColor=none;align=center;verticalAlign=middle;whiteSpace=wrap;rounded=0;" vertex="1" parent="Ems6CJQCoKu4AGtUUZMs-26">
          <mxGeometry x="30" y="42" width="120" height="30" as="geometry" />
        </mxCell>
        <mxCell id="Ems6CJQCoKu4AGtUUZMs-30" value="" style="rounded=0;whiteSpace=wrap;html=1;dashed=1;fillColor=none;strokeColor=#D0D0D0;strokeWidth=2;" vertex="1" parent="Ems6CJQCoKu4AGtUUZMs-26">
          <mxGeometry x="20" y="40" width="140" height="140" as="geometry" />
        </mxCell>
        <mxCell id="Ems6CJQCoKu4AGtUUZMs-31" value="" style="endArrow=classic;startArrow=classic;html=1;rounded=0;entryX=0.5;entryY=1;entryDx=0;entryDy=0;entryPerimeter=0;exitX=0.5;exitY=0;exitDx=0;exitDy=0;exitPerimeter=0;" edge="1" parent="1" source="Ems6CJQCoKu4AGtUUZMs-7" target="Ems6CJQCoKu4AGtUUZMs-2">
          <mxGeometry width="50" height="50" relative="1" as="geometry">
            <mxPoint x="314.5" y="502" as="sourcePoint" />
            <mxPoint x="364.5" y="452" as="targetPoint" />
          </mxGeometry>
        </mxCell>
        <mxCell id="Ems6CJQCoKu4AGtUUZMs-32" value="" style="endArrow=classic;startArrow=classic;html=1;rounded=0;exitX=1;exitY=0.5;exitDx=0;exitDy=0;exitPerimeter=0;entryX=0;entryY=0.5;entryDx=0;entryDy=0;entryPerimeter=0;" edge="1" parent="1" source="Ems6CJQCoKu4AGtUUZMs-7" target="Ems6CJQCoKu4AGtUUZMs-1">
          <mxGeometry width="50" height="50" relative="1" as="geometry">
            <mxPoint x="560" y="630" as="sourcePoint" />
            <mxPoint x="610" y="580" as="targetPoint" />
          </mxGeometry>
        </mxCell>
        <mxCell id="Ems6CJQCoKu4AGtUUZMs-33" value="" style="endArrow=classic;startArrow=classic;html=1;rounded=0;exitX=1;exitY=0.5;exitDx=0;exitDy=0;exitPerimeter=0;entryX=0;entryY=0.5;entryDx=0;entryDy=0;entryPerimeter=0;" edge="1" parent="1" source="Ems6CJQCoKu4AGtUUZMs-1" target="Ems6CJQCoKu4AGtUUZMs-6">
          <mxGeometry width="50" height="50" relative="1" as="geometry">
            <mxPoint x="560" y="630" as="sourcePoint" />
            <mxPoint x="610" y="580" as="targetPoint" />
          </mxGeometry>
        </mxCell>
        <mxCell id="Ems6CJQCoKu4AGtUUZMs-34" value="" style="endArrow=classic;startArrow=classic;html=1;rounded=0;exitX=1;exitY=0.5;exitDx=0;exitDy=0;exitPerimeter=0;" edge="1" parent="1" source="Ems6CJQCoKu4AGtUUZMs-6" target="Ems6CJQCoKu4AGtUUZMs-10">
          <mxGeometry width="50" height="50" relative="1" as="geometry">
            <mxPoint x="560" y="630" as="sourcePoint" />
            <mxPoint x="610" y="580" as="targetPoint" />
          </mxGeometry>
        </mxCell>
        <mxCell id="Ems6CJQCoKu4AGtUUZMs-35" value="" style="endArrow=classic;startArrow=classic;html=1;rounded=0;entryX=0.5;entryY=1;entryDx=0;entryDy=0;entryPerimeter=0;exitX=0.5;exitY=0;exitDx=0;exitDy=0;" edge="1" parent="1" source="Ems6CJQCoKu4AGtUUZMs-5" target="Ems6CJQCoKu4AGtUUZMs-7">
          <mxGeometry width="50" height="50" relative="1" as="geometry">
            <mxPoint x="560" y="630" as="sourcePoint" />
            <mxPoint x="610" y="580" as="targetPoint" />
          </mxGeometry>
        </mxCell>
        <mxCell id="Ems6CJQCoKu4AGtUUZMs-36" value="" style="endArrow=classic;startArrow=classic;html=1;rounded=0;entryX=0.855;entryY=0.855;entryDx=0;entryDy=0;entryPerimeter=0;exitX=0.5;exitY=0;exitDx=0;exitDy=0;" edge="1" parent="1" source="Ems6CJQCoKu4AGtUUZMs-21" target="Ems6CJQCoKu4AGtUUZMs-7">
          <mxGeometry width="50" height="50" relative="1" as="geometry">
            <mxPoint x="560" y="750" as="sourcePoint" />
            <mxPoint x="610" y="700" as="targetPoint" />
            <Array as="points">
              <mxPoint x="520" y="770" />
              <mxPoint x="321" y="770" />
            </Array>
          </mxGeometry>
        </mxCell>
        <mxCell id="Ems6CJQCoKu4AGtUUZMs-37" value="" style="endArrow=classic;startArrow=classic;html=1;rounded=0;entryX=0.5;entryY=0;entryDx=0;entryDy=0;exitX=0.145;exitY=0.855;exitDx=0;exitDy=0;exitPerimeter=0;" edge="1" parent="1" source="Ems6CJQCoKu4AGtUUZMs-7" target="Ems6CJQCoKu4AGtUUZMs-26">
          <mxGeometry width="50" height="50" relative="1" as="geometry">
            <mxPoint x="560" y="750" as="sourcePoint" />
            <mxPoint x="610" y="700" as="targetPoint" />
            <Array as="points">
              <mxPoint x="272" y="800" />
              <mxPoint x="750" y="800" />
            </Array>
          </mxGeometry>
        </mxCell>
        <mxCell id="Ems6CJQCoKu4AGtUUZMs-38" value="" style="endArrow=classic;startArrow=classic;html=1;rounded=0;entryX=1;entryY=0.5;entryDx=0;entryDy=0;entryPerimeter=0;exitX=0;exitY=0.5;exitDx=0;exitDy=0;exitPerimeter=0;" edge="1" parent="1" source="Ems6CJQCoKu4AGtUUZMs-7" target="Ems6CJQCoKu4AGtUUZMs-8">
          <mxGeometry width="50" height="50" relative="1" as="geometry">
            <mxPoint x="560" y="750" as="sourcePoint" />
            <mxPoint x="610" y="700" as="targetPoint" />
            <Array as="points">
              <mxPoint x="220" y="697" />
              <mxPoint x="220" y="550" />
            </Array>
          </mxGeometry>
        </mxCell>
        <mxCell id="Ems6CJQCoKu4AGtUUZMs-39" value="" style="endArrow=classic;startArrow=classic;html=1;rounded=0;entryX=0.855;entryY=0.145;entryDx=0;entryDy=0;entryPerimeter=0;exitX=0.5;exitY=1;exitDx=0;exitDy=0;exitPerimeter=0;" edge="1" parent="1" source="Ems6CJQCoKu4AGtUUZMs-11" target="Ems6CJQCoKu4AGtUUZMs-8">
          <mxGeometry width="50" height="50" relative="1" as="geometry">
            <mxPoint x="560" y="630" as="sourcePoint" />
            <mxPoint x="610" y="580" as="targetPoint" />
            <Array as="points">
              <mxPoint x="479" y="560" />
              <mxPoint x="350" y="560" />
              <mxPoint x="350" y="524" />
            </Array>
          </mxGeometry>
        </mxCell>
        <mxCell id="Ems6CJQCoKu4AGtUUZMs-40" value="" style="endArrow=classic;startArrow=classic;html=1;rounded=0;entryX=0;entryY=0.5;entryDx=0;entryDy=0;entryPerimeter=0;exitX=0.997;exitY=0.467;exitDx=0;exitDy=0;exitPerimeter=0;" edge="1" parent="1" source="Ems6CJQCoKu4AGtUUZMs-13" target="Ems6CJQCoKu4AGtUUZMs-11">
          <mxGeometry width="50" height="50" relative="1" as="geometry">
            <mxPoint x="550" y="620" as="sourcePoint" />
            <mxPoint x="610" y="580" as="targetPoint" />
            <Array as="points">
              <mxPoint x="390" y="310" />
              <mxPoint x="390" y="466" />
            </Array>
          </mxGeometry>
        </mxCell>
        <mxCell id="Ems6CJQCoKu4AGtUUZMs-41" value="" style="endArrow=classic;startArrow=classic;html=1;rounded=0;entryX=0.506;entryY=1.007;entryDx=0;entryDy=0;entryPerimeter=0;exitX=0.5;exitY=0;exitDx=0;exitDy=0;exitPerimeter=0;" edge="1" parent="1" source="Ems6CJQCoKu4AGtUUZMs-11" target="Ems6CJQCoKu4AGtUUZMs-3">
          <mxGeometry width="50" height="50" relative="1" as="geometry">
            <mxPoint x="560" y="510" as="sourcePoint" />
            <mxPoint x="610" y="460" as="targetPoint" />
          </mxGeometry>
        </mxCell>
        <mxCell id="Ems6CJQCoKu4AGtUUZMs-42" value="" style="endArrow=classic;startArrow=classic;html=1;rounded=0;entryX=1;entryY=0.5;entryDx=0;entryDy=0;entryPerimeter=0;exitX=0.5;exitY=1;exitDx=0;exitDy=0;exitPerimeter=0;" edge="1" parent="1" source="Ems6CJQCoKu4AGtUUZMs-12" target="Ems6CJQCoKu4AGtUUZMs-11">
          <mxGeometry width="50" height="50" relative="1" as="geometry">
            <mxPoint x="560" y="510" as="sourcePoint" />
            <mxPoint x="610" y="460" as="targetPoint" />
            <Array as="points">
              <mxPoint x="660" y="466" />
            </Array>
          </mxGeometry>
        </mxCell>
        <mxCell id="Ems6CJQCoKu4AGtUUZMs-44" value="IGW" style="text;html=1;strokeColor=none;fillColor=none;align=center;verticalAlign=middle;whiteSpace=wrap;rounded=0;" vertex="1" parent="1">
          <mxGeometry x="146.5" y="586" width="60" height="30" as="geometry" />
        </mxCell>
        <mxCell id="Ems6CJQCoKu4AGtUUZMs-45" value="Routes" style="text;html=1;strokeColor=none;fillColor=none;align=center;verticalAlign=middle;whiteSpace=wrap;rounded=0;" vertex="1" parent="1">
          <mxGeometry x="210" y="702" width="60" height="30" as="geometry" />
        </mxCell>
        <mxCell id="Ems6CJQCoKu4AGtUUZMs-46" value="ALB" style="text;html=1;strokeColor=none;fillColor=none;align=center;verticalAlign=middle;whiteSpace=wrap;rounded=0;" vertex="1" parent="1">
          <mxGeometry x="484.5" y="733" width="60" height="30" as="geometry" />
        </mxCell>
        <mxCell id="Ems6CJQCoKu4AGtUUZMs-47" value="Route 53" style="text;html=1;strokeColor=none;fillColor=none;align=center;verticalAlign=middle;whiteSpace=wrap;rounded=0;" vertex="1" parent="1">
          <mxGeometry x="709" y="732" width="60" height="30" as="geometry" />
        </mxCell>
        <mxCell id="Ems6CJQCoKu4AGtUUZMs-48" value="&lt;font style=&quot;font-size: 15px;&quot;&gt;User&lt;/font&gt;" style="text;html=1;strokeColor=none;fillColor=none;align=center;verticalAlign=middle;whiteSpace=wrap;rounded=0;" vertex="1" parent="1">
          <mxGeometry x="995" y="728.5" width="70" height="37" as="geometry" />
        </mxCell>
        <mxCell id="Ems6CJQCoKu4AGtUUZMs-49" value="Routes" style="text;html=1;strokeColor=none;fillColor=none;align=center;verticalAlign=middle;whiteSpace=wrap;rounded=0;" vertex="1" parent="1">
          <mxGeometry x="500" y="484" width="60" height="30" as="geometry" />
        </mxCell>
        <mxCell id="Ems6CJQCoKu4AGtUUZMs-53" value="&lt;font style=&quot;font-size: 14px;&quot;&gt;eu-west-2&lt;/font&gt;" style="points=[[0,0],[0.25,0],[0.5,0],[0.75,0],[1,0],[1,0.25],[1,0.5],[1,0.75],[1,1],[0.75,1],[0.5,1],[0.25,1],[0,1],[0,0.75],[0,0.5],[0,0.25]];outlineConnect=0;gradientColor=none;html=1;whiteSpace=wrap;fontSize=12;fontStyle=0;container=1;pointerEvents=0;collapsible=0;recursiveResize=0;shape=mxgraph.aws4.group;grIcon=mxgraph.aws4.group_region;strokeColor=#147EBA;fillColor=none;verticalAlign=top;align=left;spacingLeft=30;fontColor=#147EBA;dashed=1;" vertex="1" parent="1">
          <mxGeometry x="100" y="120" width="860" height="1140" as="geometry" />
        </mxCell>
      </root>
    </mxGraphModel>
  </diagram>
</mxfile>
